<?xml version="1.0" encoding="utf-8"?>
<!-- Generator: Adobe Illustrator 19.0.0, SVG Export Plug-In . SVG Version: 6.00 Build 0)  -->
<svg version="1.1" id="Layer_1" xmlns="http://www.w3.org/2000/svg" xmlns:xlink="http://www.w3.org/1999/xlink" x="0px" y="0px"
	 viewBox="0 0 375 500" style="enable-background:new 0 0 375 500;" xml:space="preserve">
<style type="text/css">
	.st0{opacity:0.47;}
	.st1{fill:#FFFFFF;}
</style>
<g id="XMLID_15_" class="st0">
	<path id="XMLID_32_" d="M109.4,255.4c-3.4-8.4-6.5-16-9.8-24.2c6.3-1.7,12-3.3,18-5c-1.9-5.9-3.4-11.6-5.8-17
		c-0.8-1.8-3.7-3-5.9-3.9c-13.8-5.8-27.9-11.1-41.4-17.5c-5-2.4-9.3-7-12.8-11.5c-9.1-11.5-7-25.4,6.2-31.6
		c11.5-5.4,24.3-10.1,36.9-11c14.5-1.1,22.1-6,24.2-20.6c1-7.2,4.6-14.1,6.1-21.3c1.7-8,6.6-12.9,14-14.6
		c12.3-2.9,24.8-5.8,37.4-6.8c18.7-1.6,37.5-0.4,55.7,5.3c9.5,3,16.1,7.7,18.3,18.5c2.2,10.6,6.4,20.8,9.3,31.2
		c1.3,4.5,3.6,6,8.2,6.4c16.8,1.7,33.7,3.7,48.7,12.5c13.2,7.7,15.7,20.4,6.3,32.3c-3.5,4.5-7.9,9-12.9,11.4
		c-13.1,6.3-26.5,11.9-40.2,16.9c-4.5,1.6-7,3.2-8.1,7.9c-1,4.4-3.1,8.6-4.8,13.4c6,1.7,11.7,3.3,18.2,5.1
		c-3.2,8.1-6.4,15.9-9.7,24.1c3.9,1.9,7.7,3.5,11.3,5.5c6.2,3.5,12.5,7.1,18.5,11c12,7.9,19.6,17.7,20.8,33.6
		c2.5,31.1,7.5,62.1,11.7,93.1c0.7,5.2-0.8,8.1-5.4,10.5c-16.3,8.3-34,12-51.8,14.9c-44.4,7.3-89.1,7.9-133.8,4
		c-22.6-2-45.1-5.4-66.5-13.4c-2.6-1-5.2-2-7.7-3.1c-10.4-4.8-10.8-6-9.9-17.4c2.8-33.3,5.3-66.5,8.1-99.8c0.3-3,1.5-6.3,3.4-8.6
		c10.4-12.2,23.9-20.3,38.3-27C104.7,257.6,106.8,256.6,109.4,255.4z M123,170.1c2.7,14.3,9.9,23.4,22.1,28
		c11.5,4.3,22.5,2.8,33.8-5.4C159.9,185,142.1,177.8,123,170.1z M252.1,170.1c-19.2,7.8-37,15-56,22.7c12,8.2,23.4,9.7,35.4,4.7
		C243,192.6,249.4,183.6,252.1,170.1z"/>
	<path id="XMLID_31_" class="st1" d="M123,170.1c19,7.7,36.9,14.9,55.8,22.6c-11.3,8.1-22.3,9.7-33.8,5.4
		C132.9,193.5,125.7,184.4,123,170.1z"/>
	<path id="XMLID_30_" class="st1" d="M252.1,170.1c-2.7,13.5-9.1,22.5-20.6,27.3c-12,5.1-23.4,3.6-35.4-4.7
		C215,185.1,232.9,177.9,252.1,170.1z"/>
</g>
</svg>
